<mxfile host="app.diagrams.net" agent="Mozilla/5.0 (Windows NT 10.0; Win64; x64; rv:130.0) Gecko/20100101 Firefox/130.0" version="24.7.16">
  <diagram name="Halaman-1" id="o9pXHZw99_OWVBRJ5fto">
    <mxGraphModel dx="880" dy="470" grid="1" gridSize="10" guides="1" tooltips="1" connect="1" arrows="1" fold="1" page="1" pageScale="1" pageWidth="827" pageHeight="1169" math="0" shadow="0">
      <root>
        <mxCell id="0" />
        <mxCell id="1" parent="0" />
        <mxCell id="FdAaFISNEp6fR4pndsd6-6" value="Pembeli" style="rounded=0;whiteSpace=wrap;html=1;" vertex="1" parent="1">
          <mxGeometry x="160" y="115" width="120" height="60" as="geometry" />
        </mxCell>
        <mxCell id="FdAaFISNEp6fR4pndsd6-8" value="Membeli" style="rhombus;whiteSpace=wrap;html=1;" vertex="1" parent="1">
          <mxGeometry x="380" y="105" width="130" height="70" as="geometry" />
        </mxCell>
        <mxCell id="FdAaFISNEp6fR4pndsd6-9" value="Sepatu" style="rounded=0;whiteSpace=wrap;html=1;" vertex="1" parent="1">
          <mxGeometry x="380" y="260" width="120" height="60" as="geometry" />
        </mxCell>
        <mxCell id="FdAaFISNEp6fR4pndsd6-12" value="Kasir" style="rounded=0;whiteSpace=wrap;html=1;" vertex="1" parent="1">
          <mxGeometry x="610" y="110" width="120" height="60" as="geometry" />
        </mxCell>
        <mxCell id="FdAaFISNEp6fR4pndsd6-15" value="" style="shape=link;html=1;rounded=0;entryX=0;entryY=0.5;entryDx=0;entryDy=0;" edge="1" parent="1" target="FdAaFISNEp6fR4pndsd6-8">
          <mxGeometry width="100" relative="1" as="geometry">
            <mxPoint x="280" y="140" as="sourcePoint" />
            <mxPoint x="350" y="139.5" as="targetPoint" />
          </mxGeometry>
        </mxCell>
        <mxCell id="FdAaFISNEp6fR4pndsd6-16" value="" style="shape=link;html=1;rounded=0;entryX=0;entryY=0.5;entryDx=0;entryDy=0;exitX=1;exitY=0.5;exitDx=0;exitDy=0;" edge="1" parent="1" source="FdAaFISNEp6fR4pndsd6-8" target="FdAaFISNEp6fR4pndsd6-12">
          <mxGeometry width="100" relative="1" as="geometry">
            <mxPoint x="510" y="139.5" as="sourcePoint" />
            <mxPoint x="640" y="140" as="targetPoint" />
          </mxGeometry>
        </mxCell>
        <mxCell id="FdAaFISNEp6fR4pndsd6-17" value="" style="shape=link;html=1;rounded=0;entryX=0.5;entryY=0;entryDx=0;entryDy=0;exitX=0.5;exitY=1;exitDx=0;exitDy=0;" edge="1" parent="1" source="FdAaFISNEp6fR4pndsd6-8" target="FdAaFISNEp6fR4pndsd6-9">
          <mxGeometry width="100" relative="1" as="geometry">
            <mxPoint x="360" y="200" as="sourcePoint" />
            <mxPoint x="460" y="200" as="targetPoint" />
          </mxGeometry>
        </mxCell>
        <mxCell id="FdAaFISNEp6fR4pndsd6-18" value="nama_pembeli" style="ellipse;whiteSpace=wrap;html=1;" vertex="1" parent="1">
          <mxGeometry x="10" y="125" width="110" height="55" as="geometry" />
        </mxCell>
        <mxCell id="FdAaFISNEp6fR4pndsd6-20" value="alamat" style="ellipse;whiteSpace=wrap;html=1;" vertex="1" parent="1">
          <mxGeometry x="155" y="20" width="70" height="30" as="geometry" />
        </mxCell>
        <mxCell id="FdAaFISNEp6fR4pndsd6-21" value="no_telepon" style="ellipse;whiteSpace=wrap;html=1;" vertex="1" parent="1">
          <mxGeometry x="140" y="230" width="70" height="30" as="geometry" />
        </mxCell>
        <mxCell id="FdAaFISNEp6fR4pndsd6-22" value="" style="endArrow=classic;html=1;rounded=0;entryX=0.657;entryY=0.067;entryDx=0;entryDy=0;entryPerimeter=0;" edge="1" parent="1" target="FdAaFISNEp6fR4pndsd6-21">
          <mxGeometry width="50" height="50" relative="1" as="geometry">
            <mxPoint x="210" y="175" as="sourcePoint" />
            <mxPoint x="210" y="235" as="targetPoint" />
          </mxGeometry>
        </mxCell>
        <mxCell id="FdAaFISNEp6fR4pndsd6-23" value="" style="endArrow=classic;html=1;rounded=0;entryX=0.5;entryY=1;entryDx=0;entryDy=0;exitX=0.5;exitY=0;exitDx=0;exitDy=0;" edge="1" parent="1" source="FdAaFISNEp6fR4pndsd6-6" target="FdAaFISNEp6fR4pndsd6-20">
          <mxGeometry width="50" height="50" relative="1" as="geometry">
            <mxPoint x="175" y="105" as="sourcePoint" />
            <mxPoint x="210" y="70" as="targetPoint" />
          </mxGeometry>
        </mxCell>
        <mxCell id="FdAaFISNEp6fR4pndsd6-24" value="" style="endArrow=classic;html=1;rounded=0;exitX=0;exitY=0.5;exitDx=0;exitDy=0;entryX=1;entryY=0.5;entryDx=0;entryDy=0;" edge="1" parent="1" source="FdAaFISNEp6fR4pndsd6-6" target="FdAaFISNEp6fR4pndsd6-18">
          <mxGeometry width="50" height="50" relative="1" as="geometry">
            <mxPoint x="120" y="140" as="sourcePoint" />
            <mxPoint x="80" y="139.5" as="targetPoint" />
          </mxGeometry>
        </mxCell>
        <mxCell id="FdAaFISNEp6fR4pndsd6-25" value="id_pembeli" style="ellipse;whiteSpace=wrap;html=1;" vertex="1" parent="1">
          <mxGeometry x="50" y="40" width="90" height="40" as="geometry" />
        </mxCell>
        <mxCell id="FdAaFISNEp6fR4pndsd6-26" value="" style="endArrow=classic;html=1;rounded=0;exitX=0;exitY=0;exitDx=0;exitDy=0;entryX=1;entryY=1;entryDx=0;entryDy=0;" edge="1" parent="1" source="FdAaFISNEp6fR4pndsd6-6" target="FdAaFISNEp6fR4pndsd6-25">
          <mxGeometry width="50" height="50" relative="1" as="geometry">
            <mxPoint x="170" y="110" as="sourcePoint" />
            <mxPoint x="120" y="80" as="targetPoint" />
          </mxGeometry>
        </mxCell>
        <mxCell id="FdAaFISNEp6fR4pndsd6-27" value="id_sepatu" style="ellipse;whiteSpace=wrap;html=1;" vertex="1" parent="1">
          <mxGeometry x="405" y="15" width="70" height="40" as="geometry" />
        </mxCell>
        <mxCell id="FdAaFISNEp6fR4pndsd6-29" value="" style="endArrow=classic;html=1;rounded=0;entryX=0.5;entryY=1;entryDx=0;entryDy=0;exitX=0.5;exitY=0;exitDx=0;exitDy=0;" edge="1" parent="1" source="FdAaFISNEp6fR4pndsd6-8" target="FdAaFISNEp6fR4pndsd6-27">
          <mxGeometry width="50" height="50" relative="1" as="geometry">
            <mxPoint x="440" y="110" as="sourcePoint" />
            <mxPoint x="490" y="60" as="targetPoint" />
          </mxGeometry>
        </mxCell>
        <mxCell id="FdAaFISNEp6fR4pndsd6-30" value="tgl_beli" style="ellipse;whiteSpace=wrap;html=1;" vertex="1" parent="1">
          <mxGeometry x="510" y="30" width="60" height="30" as="geometry" />
        </mxCell>
        <mxCell id="FdAaFISNEp6fR4pndsd6-31" value="" style="endArrow=classic;html=1;rounded=0;entryX=0;entryY=1;entryDx=0;entryDy=0;exitX=1;exitY=0;exitDx=0;exitDy=0;" edge="1" parent="1" source="FdAaFISNEp6fR4pndsd6-8" target="FdAaFISNEp6fR4pndsd6-30">
          <mxGeometry width="50" height="50" relative="1" as="geometry">
            <mxPoint x="470" y="115" as="sourcePoint" />
            <mxPoint x="520" y="65" as="targetPoint" />
          </mxGeometry>
        </mxCell>
        <mxCell id="FdAaFISNEp6fR4pndsd6-32" value="id_pembeli" style="ellipse;whiteSpace=wrap;html=1;" vertex="1" parent="1">
          <mxGeometry x="310" y="50" width="90" height="40" as="geometry" />
        </mxCell>
        <mxCell id="FdAaFISNEp6fR4pndsd6-33" value="" style="endArrow=classic;html=1;rounded=0;exitX=0;exitY=0;exitDx=0;exitDy=0;entryX=1;entryY=1;entryDx=0;entryDy=0;" edge="1" parent="1" source="FdAaFISNEp6fR4pndsd6-8" target="FdAaFISNEp6fR4pndsd6-32">
          <mxGeometry width="50" height="50" relative="1" as="geometry">
            <mxPoint x="414" y="115" as="sourcePoint" />
            <mxPoint x="374" y="75" as="targetPoint" />
          </mxGeometry>
        </mxCell>
      </root>
    </mxGraphModel>
  </diagram>
</mxfile>
